Coordinates
version=1
nRows=10
nColumns=40
inDegrees=yes

Units are S.I. units (second, meters, Newtons, ...)
Angles are in degrees.

endheader
time	pelvis_tilt	pelvis_list	pelvis_rotation	pelvis_tx	pelvis_ty	pelvis_tz	hip_flexion_r	hip_adduction_r	hip_rotation_r	knee_angle_r	knee_angle_r_beta	ankle_angle_r	subtalar_angle_r	mtp_angle_r	hip_flexion_l	hip_adduction_l	hip_rotation_l	knee_angle_l	knee_angle_l_beta	ankle_angle_l	subtalar_angle_l	mtp_angle_l	lumbar_extension	lumbar_bending	lumbar_rotation	arm_flex_r	arm_add_r	arm_rot_r	elbow_flex_r	pro_sup_r	wrist_flex_r	wrist_dev_r	arm_flex_l	arm_add_l	arm_rot_l	elbow_flex_l	pro_sup_l	wrist_flex_l	wrist_dev_l
     35.67000000	     -5.34339387	     -3.68237324	     -5.96356363	      0.83786715	      0.92444737	      0.44893668	     27.57234986	      0.02105941	    -11.96012969	     14.80096272	     14.80096272	      4.58827337	      5.10505743	      5.49796595	      4.60422003	     -4.59534403	    -11.88731400	     15.76343516	     15.76343516	     16.54019857	    -10.98986771	     -5.39721828	    -10.56215857	      5.06959466	      1.82113867	     -9.84791400	    -15.58514133	    -12.84627236	     23.69477973	     47.48201491	      0.00000000	      0.00000000	     13.97677539	    -20.08363195	    -12.72546112	     76.68137588	     47.44144238	      0.00000000	      0.00000000
     35.68285714	     -5.49504403	     -3.61045709	     -5.93479145	      0.83984496	      0.92301645	      0.45078490	     27.59534156	      0.12288685	    -12.16703104	     14.49787346	     14.49787346	      4.32267116	      5.11418394	      5.65227348	      4.03906354	     -4.56668634	    -11.87318703	     15.52367519	     15.52367519	     16.88200058	    -10.91122315	     -5.49039759	    -10.21776083	      5.11630949	      1.52847064	    -10.65544294	    -15.53120132	    -12.88670615	     23.45674601	     47.48523853	      0.00000000	      0.00000000	     14.25586845	    -20.28128325	    -12.85959289	     76.95875487	     47.45911118	      0.00000000	      0.00000000
     35.69571429	     -5.42327217	     -3.63136719	     -5.96579911	      0.84231633	      0.92207924	      0.45287262	     27.10648454	      0.34049919	    -12.34939185	     14.07736515	     14.07736515	      3.59637486	      5.18056760	      4.79179517	      2.92491848	     -4.60417538	    -12.15586193	     14.80571978	     14.80571978	     17.25082898	    -10.27606539	     -5.47636158	    -10.20715295	      5.20543816	      1.72139390	    -11.94779353	    -15.33880659	    -13.39218144	     24.44515231	     47.42643057	      0.00000000	      0.00000000	     14.30213321	    -19.99483529	    -13.05836226	     78.54998769	     47.53300138	      0.00000000	      0.00000000
     35.70857143	     -5.54282281	     -3.68731078	     -5.90591573	      0.84465121	      0.92069050	      0.45500980	     27.00889492	      0.50479510	    -12.53306071	     14.33011239	     14.33011239	      3.27795741	      4.99448808	      4.77714346	      2.33639786	     -4.74264346	    -12.09120323	     14.65102002	     14.65102002	     17.62211922	    -10.25378714	     -5.53923220	     -9.90391624	      5.36827060	      1.41586885	    -12.45631922	    -15.19207574	    -13.40487452	     24.28260761	     47.42740377	      0.00000000	      0.00000000	     14.44878258	    -20.01561811	    -13.09140386	     78.69643944	     47.53997410	      0.00000000	      0.00000000
     35.72142857	     -5.44014474	     -3.69132543	     -5.84631214	      0.84734285	      0.91957963	      0.45728240	     26.86603604	      0.59368219	    -12.27433276	     15.18384964	     15.18384964	      2.87796057	      4.04071321	      3.73695193	      1.26700518	     -4.77727179	    -12.18850643	     14.07839945	     14.07839945	     18.04666382	     -9.72947217	     -5.21566702	     -9.83219934	      5.46336159	      1.59562342	    -13.16026168	    -14.94577719	    -13.49751005	     24.25630075	     47.41694053	      0.00000000	      0.00000000	     14.62201842	    -19.67921159	    -13.14248288	     79.49142246	     47.56671372	      0.00000000	      0.00000000
     35.73428571	     -5.42158732	     -3.80549946	     -5.72538915	      0.85000172	      0.91829402	      0.45976420	     26.50836748	      0.89692743	    -11.84298073	     15.51284417	     15.51284417	      1.14173489	      2.40040910	     -0.79595549	      0.68814875	     -5.08891145	    -12.34812621	     14.35527291	     14.35527291	     19.21870501	     -8.91809135	     -3.71875021	     -9.68676097	      5.66947011	      1.43831655	    -13.74571131	    -14.64973026	    -14.01853154	     24.98172224	     47.36573916	      0.00000000	      0.00000000	     14.46844226	    -19.56940551	    -13.12982940	     80.28853187	     47.62094429	      0.00000000	      0.00000000
     35.74714286	     -5.39882531	     -3.87986549	     -5.61435280	      0.85258086	      0.91715245	      0.46219877	     26.47962653	      0.99481621	    -11.70882004	     16.69883880	     16.69883880	      1.13546624	      1.61763329	     -1.40862130	      0.06739213	     -5.30300761	    -12.24759406	     14.44550590	     14.44550590	     19.57162492	     -8.87010204	     -3.55896358	     -9.54212026	      5.84082129	      1.35948722	    -13.89758038	    -14.36719012	    -14.02189066	     24.83358973	     47.36011858	      0.00000000	      0.00000000	     14.54434875	    -19.29486437	    -13.06065811	     80.36735390	     47.62550473	      0.00000000	      0.00000000
     35.76000000	     -5.32118686	     -4.03807533	     -5.49462160	      0.85513458	      0.91630193	      0.46480110	     26.32224249	      1.20607635	    -11.52042207	     17.81513550	     17.81513550	      1.26678928	      0.77541373	     -1.93575901	     -0.47217020	     -5.65510822	    -12.10020850	     14.81124226	     14.81124226	     19.87399640	     -8.96288808	     -3.38428609	     -9.49773018	      6.08153776	      1.26301015	    -13.86697527	    -14.15136372	    -14.01751830	     24.76972877	     47.35622538	      0.00000000	      0.00000000	     14.54535744	    -19.01192655	    -12.94890410	     80.41299859	     47.62323931	      0.00000000	      0.00000000
     35.77285714	     -5.26186190	     -4.21450145	     -5.36987361	      0.85770079	      0.91586517	      0.46750640	     25.96941153	      1.45633761	    -11.44269986	     18.55945034	     18.55945034	      1.55705641	      0.35617529	     -2.24125563	     -0.96760976	     -6.04843347	    -11.97515469	     15.18752936	     15.18752936	     19.95091841	     -9.11033237	     -3.30545550	     -9.38807589	      6.31658791	      1.13544648	    -13.65562379	    -13.70650983	    -13.96461532	     24.81234583	     47.34867241	      0.00000000	      0.00000000	     14.35694188	    -18.58279385	    -12.76477841	     80.35575630	     47.60980924	      0.00000000	      0.00000000
     35.78571429	     -5.14002722	     -4.28140628	     -5.22777795	      0.85977015	      0.91535479	      0.47018822	     26.01336502	      1.58519899	    -10.94486583	     20.07279142	     20.07279142	      1.97389360	     -1.06741662	     -2.82896067	     -0.98990221	     -6.42795989	    -11.69001941	     16.53305710	     16.53305710	     20.21606812	     -9.56705061	     -3.10344573	     -9.53567821	      6.45985199	      1.16683800	    -13.25075829	    -13.57277214	    -13.93298870	     24.78115955	     47.34523707	      0.00000000	      0.00000000	     14.41226929	    -18.31960972	    -12.63022881	     80.25101299	     47.60376642	      0.00000000	      0.00000000
